<svg xmlns="http://www.w3.org/2000/svg" width="28.133" height="35.166" viewBox="0 0 28.133 35.166">
  <g id="Group_598" data-name="Group 598" transform="translate(-1301.645 -72.355)">
    <path id="Path_972" data-name="Path 972" d="M1315.712,75.871a5.275,5.275,0,0,1,5.275,5.275h3.516a8.791,8.791,0,0,0-8.791-8.791Zm-5.275,5.275a5.275,5.275,0,0,1,5.275-5.275V72.355a8.791,8.791,0,0,0-8.792,8.791Zm5.275,5.275a5.274,5.274,0,0,1-5.275-5.275h-3.517a8.792,8.792,0,0,0,8.792,8.792Zm5.275-5.275a5.275,5.275,0,0,1-5.275,5.275v3.517a8.791,8.791,0,0,0,8.791-8.792Z" fill="#8e8e8e"/>
    <path id="Path_973" data-name="Path 973" d="M1303.4,107.521h24.617V104H1303.4Zm12.309-12.308a10.549,10.549,0,0,1,10.549,10.55h3.517A14.067,14.067,0,0,0,1315.712,91.7Zm-10.55,10.55a10.55,10.55,0,0,1,10.55-10.55V91.7a14.067,14.067,0,0,0-14.067,14.067Zm-1.759,0h-1.758a1.758,1.758,0,0,0,1.758,1.758Zm24.617,0v1.758a1.758,1.758,0,0,0,1.758-1.758Z" fill="#8e8e8e"/>
  </g>
</svg>
