<svg xmlns="http://www.w3.org/2000/svg" width="29.517" height="32.795" viewBox="0 0 29.517 32.795">
  <path id="Path_425" data-name="Path 425" d="M5988.86,1416.833H6015.1v-3.279H5988.86Zm9.839-9.838a3.28,3.28,0,0,0-3.28,3.279h3.28Zm6.559,3.279h3.28a3.28,3.28,0,0,0-3.28-3.279Zm-6.559,4.92v-4.92h-3.28v4.92Zm6.559-4.92v4.92h3.28v-4.92Zm-6.559,0h6.559v-3.279H5998.7Zm4.919,11.479v9.838h3.28v-9.838Zm-6.559,0v9.838h3.28v-9.838Zm13.34,13.235a1.639,1.639,0,0,1-1.635,1.523v3.279a4.919,4.919,0,0,0,4.906-4.569Zm-15.206,1.523a1.639,1.639,0,0,1-1.635-1.523l-3.271.233a4.918,4.918,0,0,0,4.906,4.569Zm-1.635-1.523-1.422-19.911-3.272.233,1.423,19.911Zm15.206,1.523h-13.571v3.279h13.571Zm3.057-21.434-1.422,19.911,3.271.233,1.423-19.911Zm3.276,1.756a1.64,1.64,0,1,0,0-3.279Zm-26.237-3.279a1.64,1.64,0,1,0,0,3.279Zm6.559,1.64a1.64,1.64,0,0,0,3.28,0Zm9.839,0a1.64,1.64,0,0,0,3.28,0Zm-1.64,16.4a1.64,1.64,0,1,0,3.28,0Zm3.28-9.838a1.64,1.64,0,1,0-3.28,0Zm-9.839,9.838a1.64,1.64,0,1,0,3.28,0Zm3.28-9.838a1.64,1.64,0,1,0-3.28,0Zm-8.2-6.676a1.64,1.64,0,0,0-3.272.233Zm-.214,20.028,1.636-.117Zm20.113,0-1.636-.117Zm3.058-19.795a1.64,1.64,0,0,0-3.272-.233Z" transform="translate(-5987.22 -1406.995)" fill="#7f7f7f"/>
</svg>
