<svg xmlns="http://www.w3.org/2000/svg" width="35.427" height="35.427" viewBox="0 0 35.427 35.427">
  <path id="Path_971" data-name="Path 971" d="M1403.64,96.953h0l-2.505-2.505a3.542,3.542,0,0,0,2.505,6.047Zm0,0,4.062-4.062-2.505-2.5-4.062,4.062Zm0,3.542h20.523V96.953H1403.64Zm2.809,0a1.772,1.772,0,0,1,1.772,1.772h3.542a5.314,5.314,0,0,0-5.314-5.314Zm-1.771,1.772a1.771,1.771,0,0,1,1.771-1.772V96.953a5.314,5.314,0,0,0-5.314,5.314Zm1.771,1.771a1.771,1.771,0,0,1-1.771-1.771h-3.543a5.314,5.314,0,0,0,5.314,5.314Zm1.772-1.771a1.771,1.771,0,0,1-1.772,1.771v3.543a5.314,5.314,0,0,0,5.314-5.314Zm15.942-1.772a1.771,1.771,0,0,1,1.771,1.772h3.543a5.314,5.314,0,0,0-5.314-5.314Zm-1.772,1.772a1.772,1.772,0,0,1,1.772-1.772V96.953a5.314,5.314,0,0,0-5.314,5.314Zm1.772,1.771a1.771,1.771,0,0,1-1.772-1.771h-3.542a5.314,5.314,0,0,0,5.314,5.314Zm1.771-1.771a1.771,1.771,0,0,1-1.771,1.771v3.543a5.314,5.314,0,0,0,5.314-5.314Zm-22.319-23.028h27.633V75.7h-27.633Zm-1.737-1.424,2.834,14.171,3.474-.695-2.834-14.171Zm-.708-3.543.708,3.543,3.474-.695-.708-3.542Zm24.577,18.159,7.086-14.171-3.169-1.584-7.086,14.17Zm-19.3.979h17.714V89.867h-17.714ZM1399.364,75.7h3.543V72.154h-3.543Zm3.024,20-1.253-1.252Zm28.86-18.232,1.585.792a1.773,1.773,0,0,0-1.585-2.564Zm-7.085,14.171V93.41a1.771,1.771,0,0,0,1.584-.979Zm-21.256-17.714,1.737-.347a1.772,1.772,0,0,0-1.737-1.424Zm-3.543-1.771a1.771,1.771,0,0,0,0,3.542Z" transform="translate(-1397.593 -72.154)" fill="#8e8e8e"/>
</svg>
