<svg xmlns="http://www.w3.org/2000/svg" width="20.001" height="20" viewBox="0 0 20.001 20">
  <path id="Path_263" data-name="Path 263" d="M4960,3254.62h6v-2h-6Zm-5-2a2,2,0,0,0,2,2v-2Zm5,2a2,2,0,0,0,2-2h-2Zm2-6v-2a2,2,0,0,0-2,2Zm2,0h2a2,2,0,0,0-2-2Zm0,4a2,2,0,0,0,2,2v-2Zm5,2a2,2,0,0,0,2-2h-2Zm2-2v-10h-2v10Zm-5,2h3v-2h-3Zm-2-6v4h2v-4Zm-2,0h2v-2h-2Zm0,4v-4h-2v4Zm-5,2h3v-2h-3Zm-2-12v10h2v-10Zm14.293.707,2,2,1.414-1.414-2-2Zm-7-7,7,7,1.414-1.414-7-7Zm-5.586,7,7-7-1.414-1.414-7,7Zm-2,2,2-2-1.414-1.414-2,2Zm16.586,0a1,1,0,1,0,1.414-1.414ZM4963,3235.62l.707-.707a1,1,0,0,0-1.414,0Zm-9.707,8.293a1,1,0,0,0,1.414,1.414Z" transform="translate(-4953 -3234.62)" fill="#9ca3af"/>
</svg>
